<svg width="112" height="32" viewBox="0 0 112 32" fill="none" xmlns="http://www.w3.org/2000/svg">
<path fill-rule="evenodd" clip-rule="evenodd" d="M21.7302 0H10.5935C4.75231 0 0 4.29511 0 9.57432V18.98H4.46217V9.57432C4.46217 6.57146 7.27004 4.03437 10.5935 4.03437H13.9017V18.98H18.37V4.03437H21.7302C25.0816 4.03437 27.8082 6.5197 27.8082 9.57432V18.98H32.2712V9.57432C32.2712 4.29511 27.5425 0 21.7302 0Z" fill="#77BE80"/>
<path fill-rule="evenodd" clip-rule="evenodd" d="M65.3285 4.03437V0H46.4241C40.4838 0 35.8302 4.13156 35.8302 9.40563C35.8302 14.6848 40.5825 18.98 46.4241 18.98H65.3285V14.946H46.4241C43.9182 14.946 41.716 13.5692 40.7853 11.5101H61.1329V7.46983H40.7127C41.5871 5.41156 43.8182 4.03437 46.4241 4.03437H65.3285Z" fill="#628BC7"/>
<path fill-rule="evenodd" clip-rule="evenodd" d="M88.5395 0H69.4766V18.98H88.5395C94.3816 18.98 99.1348 14.6848 99.1348 9.40563C99.1348 4.13156 94.4808 0 88.5395 0ZM88.5395 14.9452H73.94V4.03437H88.5395C91.9639 4.03437 94.646 6.39368 94.646 9.40563C94.646 12.4602 91.9067 14.9452 88.5395 14.9452Z" fill="#3B64A1"/>
<path fill-rule="evenodd" clip-rule="evenodd" d="M111.237 19.7847L101.995 15.1577C101.802 15.0609 101.632 15.0123 101.487 15.0123C101.398 15.0123 101.318 15.0309 101.248 15.068C100.939 15.2328 100.936 15.7001 100.936 15.7195V24.9102C100.936 25.2318 101.028 25.444 101.21 25.5407C101.517 25.7039 101.972 25.4835 101.996 25.4716L111.237 20.8446C111.549 20.6886 111.707 20.5167 111.707 20.3346C111.707 20.0237 111.256 19.7946 111.237 19.7847Z" fill="#40B526"/>
<path fill-rule="evenodd" clip-rule="evenodd" d="M88.7012 31.5563H90.3371V22.1235H88.7012V31.5563Z" fill="#6B8495"/>
<path fill-rule="evenodd" clip-rule="evenodd" d="M79.5684 22.1235H69.4766V31.6144H79.5684C82.5642 31.6144 84.9971 29.4677 84.9971 26.8235C84.9971 24.1533 82.5642 22.1235 79.5684 22.1235ZM79.5684 30.1578H71.1274V23.5804H79.5684C81.6492 23.5804 83.3319 24.9869 83.3319 26.8235C83.3319 28.6467 81.6492 30.1578 79.5684 30.1578Z" fill="#6B8495"/>
<path fill-rule="evenodd" clip-rule="evenodd" d="M65.29 26.8255C65.29 29.4696 62.9007 31.6176 59.8896 31.6176H56.5535C53.5564 31.6176 51.123 29.4696 51.123 26.8255V22.1235H52.7743V26.8255C52.7743 28.6491 54.4867 30.1602 56.5535 30.1602H59.8896C61.9564 30.1602 63.6387 28.6491 63.6387 26.8255V22.1235H65.29V26.8255Z" fill="#6B8495"/>
<path fill-rule="evenodd" clip-rule="evenodd" d="M32.334 22.1235V23.5797H38.9569V31.6192H40.6077V23.5797H47.2312V22.1235H32.334Z" fill="#6B8495"/>
<path fill-rule="evenodd" clip-rule="evenodd" d="M29.3893 28.672C29.3893 30.2874 27.8713 31.6136 26.0418 31.6136H15.8896H14.7247L14.7243 30.1495C14.7243 30.1495 15.4465 30.157 15.904 30.157H26.0418C26.9419 30.157 27.7241 29.4669 27.7241 28.672C27.7241 27.8771 26.9419 27.1739 26.0418 27.1739H16.4651C14.9156 27.1739 13.5449 26.1203 13.5449 24.7076C13.5449 23.3067 14.8864 22.1235 16.4651 22.1235H28.3271L28.3301 23.5824C28.3301 23.5824 27.1783 23.567 26.8091 23.567H16.4651C15.8158 23.567 15.2102 23.9866 15.2102 24.6025C15.2102 25.1927 15.8014 25.7169 16.4651 25.7169H26.0418C27.8713 25.7169 29.3893 27.0566 29.3893 28.672Z" fill="#6B8495"/>
<path fill-rule="evenodd" clip-rule="evenodd" d="M109.863 26.7228C109.863 28.5574 108.167 30.0539 106.104 30.0539H100.679C98.6004 30.0539 96.9203 28.5574 96.9203 26.7228C96.9203 25.2393 98.0345 24.0237 99.5709 23.6235V22.1235C97.0999 22.5568 95.2559 24.4156 95.2559 26.7228C95.2559 29.3768 97.6718 31.5093 100.679 31.5093H106.104C109.097 31.5093 111.527 29.3768 111.527 26.7228C111.527 25.1931 110.709 23.8637 109.441 23.0127L107.804 23.8321C109.021 24.3607 109.863 25.4408 109.863 26.7228Z" fill="#6B8495"/>
</svg>
